HIERARCHY
ROOT Hips
{
  OFFSET 5.84602e-005 68.8428 3.50346
  CHANNELS 6 Xposition Yposition Zposition Zrotation Xrotation Yrotation
  JOINT Spine
  {
    OFFSET 0 8.597 -4.6522
    CHANNELS 3 Zrotation Xrotation Yrotation
    JOINT Spine1
    {
      OFFSET 0 7.8454 0.4098
      CHANNELS 3 Zrotation Xrotation Yrotation
      JOINT Spine2
      {
        OFFSET 0 9.7078 -2.1609
        CHANNELS 3 Zrotation Xrotation Yrotation
        JOINT Neck
        {
          OFFSET 0 21.8761 -0.4549
          CHANNELS 3 Zrotation Xrotation Yrotation
          JOINT Head
          {
            OFFSET 0 12.3537 3.3602
            CHANNELS 3 Zrotation Xrotation Yrotation
            End Site
            {
              OFFSET 0.0001 18.9506 0.5657
            }
          }
        }
        JOINT LeftShoulder
        {
          OFFSET 2.2086 21.1115 7.2329
          CHANNELS 3 Zrotation Xrotation Yrotation
          JOINT LeftArm
          {
            OFFSET 13.1193 3.0282 -4.8998
            CHANNELS 3 Zrotation Xrotation Yrotation
            JOINT LeftForeArm
            {
              OFFSET 27.4081 -0.0973053 -0.2375
              CHANNELS 3 Zrotation Xrotation Yrotation
              JOINT LeftHand
              {
                OFFSET 22.8641 0.0662994 -0.1369
                CHANNELS 3 Zrotation Xrotation Yrotation
                JOINT LeftHandIndex1
                {
                  OFFSET 8.8614 0.775009 2.4612
                  CHANNELS 3 Zrotation Xrotation Yrotation
                  JOINT LeftHandIndex2
                  {
                    OFFSET 3.3146 -0.808304 0.5841
                    CHANNELS 3 Zrotation Xrotation Yrotation
                    JOINT LeftHandIndex3
                    {
                      OFFSET 2.2628 -0.552002 0.3989
                      CHANNELS 3 Zrotation Xrotation Yrotation
                      End Site
                      {
                        OFFSET 1.6102 -0.4807 0.2612
                      }
                    }
                  }
                }
                JOINT LeftHandMiddle1
                {
                  OFFSET 8.9937 0.895004 0.2143
                  CHANNELS 3 Zrotation Xrotation Yrotation
                  JOINT LeftHandMiddle2
                  {
                    OFFSET 4.0984 0.0113983 -0.0242
                    CHANNELS 3 Zrotation Xrotation Yrotation
                    JOINT LeftHandMiddle3
                    {
                      OFFSET 2.2716 0.00689697 -0.0138001
                      CHANNELS 3 Zrotation Xrotation Yrotation
                      End Site
                      {
                        OFFSET 2.0404 -0.1441 0.0027
                      }
                    }
                  }
                }
                JOINT LeftHandRing1
                {
                  OFFSET 8.5234 0.597198 -2.0164
                  CHANNELS 3 Zrotation Xrotation Yrotation
                  JOINT LeftHandRing2
                  {
                    OFFSET 3.7188 -0.188293 -0.2328
                    CHANNELS 3 Zrotation Xrotation Yrotation
                    JOINT LeftHandRing3
                    {
                      OFFSET 2.1191 -0.106598 -0.1332
                      CHANNELS 3 Zrotation Xrotation Yrotation
                      End Site
                      {
                        OFFSET 1.8737 -0.2304 -0.0886
                      }
                    }
                  }
                }
                JOINT LeftHandPinky1
                {
                  OFFSET 7.9094 -0.601089 -3.4825
                  CHANNELS 3 Zrotation Xrotation Yrotation
                  JOINT LeftHandPinky2
                  {
                    OFFSET 2.2874 -0.477005 -0.6314
                    CHANNELS 3 Zrotation Xrotation Yrotation
                    JOINT LeftHandPinky3
                    {
                      OFFSET 1.6774 -0.349396 -0.4633
                      CHANNELS 3 Zrotation Xrotation Yrotation
                      End Site
                      {
                        OFFSET 1.4888 -0.4091 -0.3416
                      }
                    }
                  }
                }
                JOINT LeftHandThumb1
                {
                  OFFSET 1.833 -1.3875 1.3896
                  CHANNELS 3 Zrotation Xrotation Yrotation
                  JOINT LeftHandThumb2
                  {
                    OFFSET 3.4129 -1.121 2.5732
                    CHANNELS 3 Zrotation Xrotation Yrotation
                    JOINT LeftHandThumb3
                    {
                      OFFSET 2.2474 -0.804199 1.6192
                      CHANNELS 3 Zrotation Xrotation Yrotation
                      End Site
                      {
                        OFFSET 1.6527 -0.5689 1.1317
                      }
                    }
                  }
                }
              }
            }
          }
        }
        JOINT RightShoulder
        {
          OFFSET -2.2086 21.1115 7.2329
          CHANNELS 3 Zrotation Xrotation Yrotation
          JOINT RightArm
          {
            OFFSET -13.1216 3.0287 -4.9007
            CHANNELS 3 Zrotation Xrotation Yrotation
            JOINT RightForeArm
            {
              OFFSET -27.4081 -0.0973053 -0.2375
              CHANNELS 3 Zrotation Xrotation Yrotation
              JOINT RightHand
              {
                OFFSET -22.8641 0.0664063 -0.1369
                CHANNELS 3 Zrotation Xrotation Yrotation
                JOINT RightHandIndex1
                {
                  OFFSET -8.8614 0.774994 2.4612
                  CHANNELS 3 Zrotation Xrotation Yrotation
                  JOINT RightHandIndex2
                  {
                    OFFSET -3.3146 -0.808304 0.5841
                    CHANNELS 3 Zrotation Xrotation Yrotation
                    JOINT RightHandIndex3
                    {
                      OFFSET -2.2628 -0.552002 0.3989
                      CHANNELS 3 Zrotation Xrotation Yrotation
                      End Site
                      {
                        OFFSET -1.6102 -0.4807 0.2612
                      }
                    }
                  }
                }
                JOINT RightHandMiddle1
                {
                  OFFSET -8.9937 0.894989 0.2143
                  CHANNELS 3 Zrotation Xrotation Yrotation
                  JOINT RightHandMiddle2
                  {
                    OFFSET -4.0984 0.0113983 -0.0242
                    CHANNELS 3 Zrotation Xrotation Yrotation
                    JOINT RightHandMiddle3
                    {
                      OFFSET -2.2716 0.00691223 -0.0138001
                      CHANNELS 3 Zrotation Xrotation Yrotation
                      End Site
                      {
                        OFFSET -2.0404 -0.1441 0.0027
                      }
                    }
                  }
                }
                JOINT RightHandRing1
                {
                  OFFSET -8.5234 0.597198 -2.0164
                  CHANNELS 3 Zrotation Xrotation Yrotation
                  JOINT RightHandRing2
                  {
                    OFFSET -3.7188 -0.188309 -0.2328
                    CHANNELS 3 Zrotation Xrotation Yrotation
                    JOINT RightHandRing3
                    {
                      OFFSET -2.1191 -0.106598 -0.1332
                      CHANNELS 3 Zrotation Xrotation Yrotation
                      End Site
                      {
                        OFFSET -1.8737 -0.2304 -0.0886
                      }
                    }
                  }
                }
                JOINT RightHandPinky1
                {
                  OFFSET -7.9094 -0.601105 -3.4825
                  CHANNELS 3 Zrotation Xrotation Yrotation
                  JOINT RightHandPinky2
                  {
                    OFFSET -2.2874 -0.477005 -0.6314
                    CHANNELS 3 Zrotation Xrotation Yrotation
                    JOINT RightHandPinky3
                    {
                      OFFSET -1.6774 -0.349396 -0.4633
                      CHANNELS 3 Zrotation Xrotation Yrotation
                      End Site
                      {
                        OFFSET -1.4888 -0.4091 -0.3416
                      }
                    }
                  }
                }
                JOINT RightHandThumb1
                {
                  OFFSET -1.833 -1.38751 1.3896
                  CHANNELS 3 Zrotation Xrotation Yrotation
                  JOINT RightHandThumb2
                  {
                    OFFSET -3.41299 -1.12099 2.5732
                    CHANNELS 3 Zrotation Xrotation Yrotation
                    JOINT RightHandThumb3
                    {
                      OFFSET -2.24741 -0.804108 1.6192
                      CHANNELS 3 Zrotation Xrotation Yrotation
                      End Site
                      {
                        OFFSET -1.6527 -0.5689 1.1317
                      }
                    }
                  }
                }
              }
            }
          }
        }
      }
    }
  }
  JOINT RightUpLeg
  {
    OFFSET -9.1966 3.8861 -0.7581
    CHANNELS 3 Zrotation Xrotation Yrotation
    JOINT RightLeg
    {
      OFFSET -0.7359 -41.0265 0
      CHANNELS 3 Zrotation Xrotation Yrotation
      JOINT RightFoot
      {
        OFFSET 0 -40.2855 0
        CHANNELS 3 Zrotation Xrotation Yrotation
        JOINT RightToeBase
        {
          OFFSET 0 -5.6122 11.7359
          CHANNELS 3 Zrotation Xrotation Yrotation
          End Site
          {
            OFFSET 0 0 7.8731
          }
        }
      }
    }
  }
  JOINT LeftUpLeg
  {
    OFFSET 9.1965 3.8864 -0.7581
    CHANNELS 3 Zrotation Xrotation Yrotation
    JOINT LeftLeg
    {
      OFFSET 0.7359 -41.0268 0
      CHANNELS 3 Zrotation Xrotation Yrotation
      JOINT LeftFoot
      {
        OFFSET 0 -40.2855 0
        CHANNELS 3 Zrotation Xrotation Yrotation
        JOINT LeftToeBase
        {
          OFFSET 0 -5.6122 11.7359
          CHANNELS 3 Zrotation Xrotation Yrotation
          End Site
          {
            OFFSET 0 0 7.8731
          }
        }
      }
    }
  }
}
MOTION
Frames:	4
Frame Time:	0.0333333
5.84602e-005 68.8428 3.50346 0 0 -0 0 0 -0 0 0 -0 0 0 -0 0 0 -0 0 0 -0 0 0 -0 0 0 -0 0 0 -0 0 0 -0 0 0 -0 0 0 -0 0 0 -0 0 0 -0 -0.0146107 -8.87603e-005 -2.63497e-007 2.99804e-018 -2.42657e-020 -1.42182e-022 0 0 -0 -0.0187562 -0.001176 5.858e-005 5.06224e-018 3.88251e-019 1.21329e-020 0 0 -0 -0.012269 -0.00324817 0.000675346 -1.74678e-018 3.88251e-019 -0 0 0 -0 0 0 -0 0 0 -0 0 0 -0 0 0 -0 0 0 -0 0 0 -0 0 0 -0 0 0 -0 0 0 -0 0 0 -0 0.0149955 -9.10982e-005 2.64101e-007 -9.69331e-018 1.21329e-020 -4.7394e-023 0 0 -0 0.0189956 -0.00119102 -5.96516e-005 -5.41541e-019 0 2.42657e-020 0 0 -0 0.0122698 -0.00324857 -0.000673756 -2.00796e-019 0 -1.94126e-019 0 0 -0 0 0 -0 0 0 -0 3.39842 1.33031 -0.0637918 -5.65207e-008 0.834868 -0.000436188 -3.39935 -2.16518 -0.0642563 -8.89002e-024 -1.18485e-023 -1.48106e-024 -3.39844 1.35642 0.0640283 -3.18788e-007 0.782166 -0.000588827 3.39931 -2.13858 0.0634662 1.1399e-023 0 -0 
1.62983 41.7921 -2.05241 0 41.9988 -0 0.254224 -1.97585 -0.24997 0.500263 -3.95277 -0.491597 0.500263 -3.95276 -0.491597 -2.62283e-006 -0.0821698 4.66364e-006 -0.176604 0.389927 0.000598808 -33.3726 16.0516 -36.6211 -34.2883 -3.83401 18.2819 -14.4767 7.46989 -43.3162 24.9147 -32.4107 -38.7688 -5.96354e-016 2.98177e-016 1.27222e-014 -1.98785e-016 2.98177e-016 6.36111e-015 -6.62086e-032 3.97569e-016 9.54166e-015 -5.96354e-016 2.98177e-016 1.27222e-014 -0.0146158 -8.69399e-005 1.29206e-006 3.97569e-016 -3.97569e-016 -3.18055e-015 -5.96354e-016 2.98177e-016 1.27222e-014 -0.0187341 -0.00117427 6.24077e-005 -4.47266e-016 5.46658e-016 1.27222e-014 -5.96354e-016 2.98177e-016 1.27222e-014 -0.012282 -0.00325365 0.000675811 -5.46658e-016 -7.95139e-016 1.27222e-014 -5.96354e-016 2.98177e-016 1.27222e-014 -1.98785e-016 2.98177e-016 6.36111e-015 -6.62086e-032 3.97569e-016 9.54166e-015 29.514 14.3094 36.3618 34.0006 -3.89453 -18.2777 13.9448 6.98973 41.8363 -18.5471 -31.1917 41.5732 -3.97569e-016 -8.44835e-016 6.36111e-015 -1.98785e-016 -9.93923e-016 6.36111e-015 -2.48481e-016 -3.47873e-016 3.18055e-015 -3.97569e-016 -8.44835e-016 6.36111e-015 0.01502 -9.0179e-005 2.4404e-007 -9.93923e-017 4.96962e-016 -3.18055e-015 -3.97569e-016 -8.44835e-016 6.36111e-015 0.0190308 -0.00118992 -6.12606e-005 3.97569e-016 8.94531e-016 -6.36111e-015 -3.97569e-016 -8.44835e-016 6.36111e-015 0.0122578 -0.00324814 -0.000679926 1.49089e-016 -1.09332e-015 3.18055e-015 -3.97569e-016 -8.44835e-016 6.36111e-015 -1.98785e-016 -9.93923e-016 6.36111e-015 -2.48481e-016 -3.47873e-016 3.18055e-015 -60.4252 -29.3649 -23.558 -173.142 84.3289 171.094 57.2414 35.5868 -59.9705 -6.74236e-008 2.29821e-006 -1.43149e-007 60.4051 -29.3761 23.5291 173.414 84.3333 -171.359 -57.2635 35.5871 59.9691 6.5709e-007 -2.44135e-006 2.15534e-006 
1.62983 41.6879 -1.47988 0 41.0023 -0 0.253299 -1.93173 -0.252159 0.498512 -3.86452 -0.496188 0.498512 -3.86451 -0.496189 -5.02206e-006 -0.0481982 2.26345e-006 -0.346734 0.775339 0.0468478 -34.0201 16.7482 -35.9395 -34.039 -3.77389 18.2285 -14.25 7.28774 -42.7109 24.4416 -32.4544 -39.3606 9.93923e-017 3.72721e-016 3.18055e-015 -1.49089e-016 4.96962e-016 -0 -5.46658e-016 3.47873e-016 -0 9.93923e-017 3.72721e-016 3.18055e-015 -0.0146376 -8.87621e-005 3.58724e-006 8.39865e-015 9.29318e-015 -3.18055e-015 9.93923e-017 3.72721e-016 3.18055e-015 -0.0187197 -0.00117334 4.83903e-005 -5.46658e-016 3.47873e-016 1.90833e-014 9.93923e-017 3.72721e-016 3.18055e-015 -0.0122121 -0.00323289 0.00067109 5.96354e-016 0 6.36111e-015 9.93923e-017 3.72721e-016 3.18055e-015 -1.49089e-016 4.96962e-016 -0 -5.46658e-016 3.47873e-016 -0 30.1381 15.0328 35.6937 33.7025 -3.81781 -18.2143 13.7196 6.81549 41.2349 -18.0799 -31.1764 42.1608 7.45443e-016 -3.47873e-016 -3.18055e-015 -2.48481e-016 5.96354e-016 -1.27222e-014 -4.96962e-017 8.44835e-016 -3.18055e-015 7.45443e-016 -3.47873e-016 -3.18055e-015 0.0149986 -9.29229e-005 1.55452e-006 -8.29926e-015 9.98893e-015 3.18055e-015 7.45443e-016 -3.47873e-016 -3.18055e-015 0.0190048 -0.00119103 -5.80755e-005 -4.96962e-016 -6.4605e-016 -3.18055e-015 7.45443e-016 -3.47873e-016 -3.18055e-015 0.0123041 -0.00325345 -0.000674474 -4.96962e-017 4.96962e-017 -3.18055e-015 7.45443e-016 -3.47873e-016 -3.18055e-015 -2.48481e-016 5.96354e-016 -1.27222e-014 -4.96962e-017 8.44835e-016 -3.18055e-015 -60.2408 -27.914 -23.2951 -172.769 84.9761 170.741 56.3346 36.0346 -59.4883 7.89741e-007 -2.15673e-006 2.44112e-006 60.2207 -27.9251 23.2667 173.07 84.9807 -171.036 -56.3576 36.034 59.488 -5.01286e-007 -5.88407e-007 4.09923e-007 
1.62982 41.5862 -0.906735 0 40.0045 -0 0.252349 -1.88749 -0.254341 0.496712 -3.77604 -0.500765 0.496712 -3.77603 -0.500765 5.54484e-006 -0.014704 -6.32942e-006 -0.517363 1.161 0.0942949 -34.6795 17.4382 -35.2463 -33.7897 -3.714 18.1748 -14.0213 7.10789 -42.1047 23.9676 -32.494 -39.9533 4.96962e-017 -7.95139e-016 -0 -4.96962e-017 -4.22417e-016 -3.18055e-015 2.98177e-016 -2.98177e-016 -6.36111e-015 4.96962e-017 -7.95139e-016 -0 -0.0146008 -8.93353e-005 -3.24643e-006 1.98785e-016 -3.47873e-016 6.36111e-015 4.96962e-017 -7.95139e-016 -0 -0.0187676 -0.00117692 5.68689e-005 3.97569e-016 -5.96354e-016 -3.18055e-015 4.96962e-017 -7.95139e-016 -0 -0.0122943 -0.00325191 0.000676247 -2.98177e-016 -7.45443e-017 9.54166e-015 4.96962e-017 -7.95139e-016 -0 -4.96962e-017 -4.22417e-016 -3.18055e-015 2.98177e-016 -2.98177e-016 -6.36111e-015 30.774 15.7501 35.0142 33.4042 -3.74142 -18.1506 13.4925 6.64354 40.6327 -17.6128 -31.1571 42.7483 1.10348e-032 9.93923e-017 -6.36111e-015 9.93923e-017 -7.45443e-017 -0 1.44119e-015 6.95746e-016 -9.54166e-015 1.10348e-032 9.93923e-017 -6.36111e-015 0.0150257 -9.41547e-005 -6.16226e-007 3.97569e-016 -7.45443e-016 -1.27222e-014 1.10348e-032 9.93923e-017 -6.36111e-015 0.0190209 -0.00119302 -5.62973e-005 -1.49089e-016 5.96354e-016 -1.90833e-014 1.10348e-032 9.93923e-017 -6.36111e-015 0.0122603 -0.00324435 -0.000678035 2.48481e-016 -2.98177e-016 -9.54166e-015 1.10348e-032 9.93923e-017 -6.36111e-015 9.93923e-017 -7.45443e-017 -0 1.44119e-015 6.95746e-016 -9.54166e-015 -60.0646 -26.4611 -23.0402 -172.287 85.6231 170.279 55.4175 36.476 -58.9945 7.19981e-007 1.41031e-007 2.2997e-006 60.0444 -26.4726 23.0123 172.626 85.6278 -170.612 -55.4414 36.4745 58.9953 7.19646e-007 -1.40913e-007 2.29982e-006 
